6126e414af1acb193e24fdf33c7cac2e *tests/data/fate/aptx-hd.aptx_hd
628428 tests/data/fate/aptx-hd.aptx_hd
#tb 0: 1/44100
#media_type 0: audio
#codec_id 0: pcm_s32le
#sample_rate 0: 44100
#channel_layout_name 0: 2 channels
0,          0,          0,     1024,     8192, 0xa99888c6
0,       1024,       1024,     1024,     8192, 0xc3e03a3c
0,       2048,       2048,     1024,     8192, 0x3f06e090
0,       3072,       3072,     1024,     8192, 0x92fb18f3
0,       4096,       4096,     1024,     8192, 0x3d5603a2
0,       5120,       5120,     1024,     8192, 0xcc3d3101
0,       6144,       6144,     1024,     8192, 0xbcc022ef
0,       7168,       7168,     1024,     8192, 0x600cbb73
0,       8192,       8192,     1024,     8192, 0xdc938cbb
0,       9216,       9216,     1024,     8192, 0x37d968bc
0,      10240,      10240,      785,     6280, 0x48243144
